<svg id="KFD" xmlns="http://www.w3.org/2000/svg" width="192.669" height="48" viewBox="0 0 192.669 48">
  <path id="Icon" d="M50.652,33H47.433l-.056-.882a6.139,6.139,0,0,1-1.665.867,6.49,6.49,0,0,1-2.051.29,5.93,5.93,0,0,1-5.64-3.551,9,9,0,0,1,0-7.154,6.292,6.292,0,0,1,9.218-2.449V12.363h3.412Zm-14.1-10.952H33.526V33H30.114V22.048H28.16l.3-2.806h1.651V16.323a3.867,3.867,0,0,1,1.087-2.9,4.252,4.252,0,0,1,3.1-1.058,9.968,9.968,0,0,1,2.228.249l-.3,2.752a3.83,3.83,0,0,0-1.074-.139q-1.623,0-1.624,1.705v2.313h3.028ZM23.134,33l-4.375-6.109V33H15.346V12.363h3.412V24.881l4.265-5.639h3.852l-5.009,6.6L26.986,33ZM33,0C14.774,0,0,10.746,0,24S14.774,48,33,48,66,37.256,66,24,51.224,0,33,0M44.158,21.828a2.946,2.946,0,0,0-2.491,1.184,5.072,5.072,0,0,0-.894,3.136,5.077,5.077,0,0,0,.894,3.138,2.944,2.944,0,0,0,2.491,1.182,2.779,2.779,0,0,0,2.435-1.155,5.419,5.419,0,0,0,.811-3.165,5.423,5.423,0,0,0-.811-3.165,2.783,2.783,0,0,0-2.435-1.155" fill="#dc005a"/>
  <path id="Text" d="M47.118,8.035l2.741-3.492h1.588L48.684,8.035l2.763,3.917H49.859Zm-1.46-3.492h1.355v7.408H45.658ZM55.713,9.007l-.921-2.647L53.86,9.007Zm.423,1.185h-2.7l-.613,1.758H51.512l2.635-7.408h1.28l2.636,7.408H56.751Zm3.651,1.758h1.355v-6.1h2.1V4.542H57.691V5.854h2.1Zm4.425,0h1.355V8.743h3.387V11.95h1.355V4.542H68.953V7.473H65.566V4.542H64.212ZM76.8,10.088a2.8,2.8,0,0,0,.576-1.842A2.8,2.8,0,0,0,76.8,6.4a2.312,2.312,0,0,0-3.314,0,2.8,2.8,0,0,0-.576,1.841,2.8,2.8,0,0,0,.576,1.842,2.316,2.316,0,0,0,3.314,0m-3.536,1.529a3.4,3.4,0,0,1-1.3-1.355,4.193,4.193,0,0,1-.471-2.017,4.181,4.181,0,0,1,.471-2.015,3.39,3.39,0,0,1,1.3-1.355,3.9,3.9,0,0,1,3.757,0,3.39,3.39,0,0,1,1.3,1.355A4.181,4.181,0,0,1,78.8,8.245a4.193,4.193,0,0,1-.471,2.017,3.4,3.4,0,0,1-1.3,1.355,3.91,3.91,0,0,1-3.757,0m6.714.334h4.4V10.743H81.334v-6.2H79.98Zm5.293,0h1.353V4.544H85.273Zm3.793-.024A5.7,5.7,0,0,0,90.4,12.1a3.06,3.06,0,0,0,2.266-.647,2.145,2.145,0,0,0,.6-1.514A1.823,1.823,0,0,0,92.684,8.5a5.22,5.22,0,0,0-1.868-.926,8.416,8.416,0,0,1-.862-.3,1.325,1.325,0,0,1-.461-.32.7.7,0,0,1-.169-.486.648.648,0,0,1,.318-.582,1.745,1.745,0,0,1,.919-.2,4.286,4.286,0,0,1,1.085.142,8.313,8.313,0,0,1,1.2.427l.139-1.387A7.621,7.621,0,0,0,91.87,4.53a5.532,5.532,0,0,0-1.223-.135,3.048,3.048,0,0,0-2,.581,1.9,1.9,0,0,0-.7,1.536,1.8,1.8,0,0,0,.259,1,2,2,0,0,0,.7.667,6.143,6.143,0,0,0,1.123.493q.719.257,1.046.4a1.314,1.314,0,0,1,.5.351.775.775,0,0,1,.176.522.727.727,0,0,1-.318.642,1.534,1.534,0,0,1-.879.215,5.773,5.773,0,0,1-2.455-.677l-.157,1.441a5.372,5.372,0,0,0,1.116.369m6.7-.306a4.048,4.048,0,0,0,1.985.476,4.529,4.529,0,0,0,1.957-.433l-.147-1.292a5.622,5.622,0,0,1-.894.318,3.708,3.708,0,0,1-.916.1,2.141,2.141,0,0,1-1.72-.7,2.755,2.755,0,0,1-.6-1.852,2.71,2.71,0,0,1,.61-1.851,2.183,2.183,0,0,1,1.741-.7,3.5,3.5,0,0,1,.9.112,5.869,5.869,0,0,1,.874.312l.147-1.29a4.132,4.132,0,0,0-1.915-.435,4.033,4.033,0,0,0-1.985.483A3.443,3.443,0,0,0,94.442,6.23a4.024,4.024,0,0,0-.493,2.015,4.178,4.178,0,0,0,.476,2.027,3.337,3.337,0,0,0,1.339,1.35m5.075.329h1.355V8.743h3.387V11.95h1.355V4.542h-1.355V7.473h-3.387V4.542h-1.355Zm7.725,0h4.848V10.638h-3.461V8.743h2.6V7.431h-2.6V5.854h3.354V4.542h-4.741ZM45.658,23.856h1.355V20.649H49.49V19.336H47.013V17.76H50.22V16.448H45.658Zm7.908-3.884q1.491,0,1.492-1.206a1.125,1.125,0,0,0-.339-.884,1.635,1.635,0,0,0-1.1-.3H52.57v2.391Zm-2.35-3.524h2.709a2.837,2.837,0,0,1,1.868.566,2.053,2.053,0,0,1,.682,1.678,2.242,2.242,0,0,1-.327,1.265,2.325,2.325,0,0,1-.933.789l1.673,3.111H55.374L53.947,21.1H52.57v2.752H51.215Zm10.043,4.467-.921-2.647-.931,2.647Zm.423,1.185h-2.7l-.613,1.758H57.057l2.635-7.408h1.28l2.636,7.408H62.3Zm3.28,1.021a3.424,3.424,0,0,0,4.592,0,3.574,3.574,0,0,0,.774-2.438V16.449H68.973v3.883a5.078,5.078,0,0,1-.137,1.287,1.443,1.443,0,0,1-.513.8,2.122,2.122,0,0,1-2.128,0,1.425,1.425,0,0,1-.513-.8,5.078,5.078,0,0,1-.137-1.287V16.449H64.189v4.233a3.582,3.582,0,0,0,.772,2.438m6.91.735H76.72V22.543H73.259V20.649h2.6V19.336h-2.6V17.76h3.354V16.448H71.872Zm6.013,0H79.24v-5.08l3.387,5.08h1.111V16.448H82.382v4.784l-3.165-4.784H77.885Zm8.768-.327a4.014,4.014,0,0,0,2,.476,5.642,5.642,0,0,0,1.372-.159,3.936,3.936,0,0,0,1.053-.4v-3.3H88.712v1.121h1.016v1.324a5.007,5.007,0,0,1-1.016.113A2.12,2.12,0,0,1,87,22a2.825,2.825,0,0,1-.593-1.88,2.68,2.68,0,0,1,.6-1.824A2.241,2.241,0,0,1,88.8,17.6a4.448,4.448,0,0,1,1.893.423l.149-1.29a3.681,3.681,0,0,0-.931-.318A5.228,5.228,0,0,0,88.8,16.3a4.146,4.146,0,0,0-2.012.478,3.4,3.4,0,0,0-1.37,1.348,4.035,4.035,0,0,0-.493,2.017,4.445,4.445,0,0,0,.445,2.037,3.17,3.17,0,0,0,1.285,1.35m5.74.327h4.848V22.543H93.78V20.649h2.6V19.336h-2.6V17.76h3.354V16.448H92.393Zm13.546,0-1.026-7.408H103.8L102,19.824l-1.81-3.376H99.082l-1.026,7.408h1.407L100.1,18.9l1.9,3.4,1.895-3.407.635,4.963Zm1.228,0h4.848V22.543h-3.461V20.649h2.6V19.336h-2.6V17.76h3.354V16.448h-4.741Zm6.011,0h1.355V16.446h-1.355Zm2.985,0h1.355v-5.08l3.387,5.08h1.111V16.448h-1.355v4.784L117.5,16.448h-1.333Zm8.29-.02a5.787,5.787,0,0,0,1.338.169,3.068,3.068,0,0,0,2.266-.645,2.148,2.148,0,0,0,.6-1.514,1.818,1.818,0,0,0-.588-1.434,5.193,5.193,0,0,0-1.868-.926,8.771,8.771,0,0,1-.862-.306,1.3,1.3,0,0,1-.461-.318.7.7,0,0,1-.169-.486.646.646,0,0,1,.318-.582,1.728,1.728,0,0,1,.919-.2,4.285,4.285,0,0,1,1.085.142,8.137,8.137,0,0,1,1.2.428l.139-1.387a7.622,7.622,0,0,0-1.118-.339,5.535,5.535,0,0,0-1.223-.137,3.048,3.048,0,0,0-2,.582,1.9,1.9,0,0,0-.7,1.534,1.809,1.809,0,0,0,.259,1,2.016,2.016,0,0,0,.7.667,6.385,6.385,0,0,0,1.123.493q.719.254,1.048.4a1.32,1.32,0,0,1,.5.351.779.779,0,0,1,.176.523.724.724,0,0,1-.318.64,1.533,1.533,0,0,1-.879.217,5.773,5.773,0,0,1-2.455-.677l-.157,1.439a5.263,5.263,0,0,0,1.116.371m6.7-.306a4.048,4.048,0,0,0,1.985.476,4.529,4.529,0,0,0,1.957-.433l-.147-1.294a5.64,5.64,0,0,1-.894.32,3.71,3.71,0,0,1-.916.1,2.14,2.14,0,0,1-1.72-.7,2.755,2.755,0,0,1-.6-1.852,2.71,2.71,0,0,1,.61-1.851,2.183,2.183,0,0,1,1.741-.7,3.5,3.5,0,0,1,.9.112,5.684,5.684,0,0,1,.874.312l.147-1.29a4.132,4.132,0,0,0-1.915-.435,4.033,4.033,0,0,0-1.985.483,3.444,3.444,0,0,0-1.365,1.355,4.024,4.024,0,0,0-.493,2.015,4.182,4.182,0,0,0,.476,2.027,3.337,3.337,0,0,0,1.339,1.35m5.077.327h1.355V20.649h3.387v3.207h1.355V16.448h-1.355v2.931h-3.387V16.448h-1.355Zm11.144-2.941-.921-2.647-.931,2.647ZM147.8,22.1h-2.7l-.613,1.758h-1.312l2.635-7.408h1.28l2.636,7.408h-1.312Zm2.772,1.756h1.355V20.649H154.4V19.336h-2.477V17.76h3.207V16.448h-4.562Zm7,0h1.355v-6.1h2.1V16.448h-5.546V17.76h2.095ZM48.432,34.556a1.992,1.992,0,0,0,1.614-.66A2.776,2.776,0,0,0,50.6,32.06a2.781,2.781,0,0,0-.555-1.837,1.993,1.993,0,0,0-1.614-.662H47.013v5Zm-2.774-6.2h2.774a3.94,3.94,0,0,1,1.888.444,3.183,3.183,0,0,1,1.3,1.282,4.436,4.436,0,0,1,0,3.957,3.194,3.194,0,0,1-1.3,1.282,3.959,3.959,0,0,1-1.888.444H45.658Zm7.62,7.408h4.848V34.451H54.665V32.556h2.6V31.244h-2.6V29.667h3.354V28.355H53.278Zm6.7-.737a3.424,3.424,0,0,0,4.592,0,3.574,3.574,0,0,0,.774-2.438V28.355H63.99v3.883a5.078,5.078,0,0,1-.137,1.287,1.443,1.443,0,0,1-.513.8,2.122,2.122,0,0,1-2.128,0,1.425,1.425,0,0,1-.513-.8,5.078,5.078,0,0,1-.137-1.287V28.355H59.206v4.233a3.582,3.582,0,0,0,.772,2.438m8.35.735h1.355v-6.1h2.1V28.353H66.232v1.312h2.1Zm5.232-.02a5.787,5.787,0,0,0,1.338.169,3.068,3.068,0,0,0,2.266-.645,2.141,2.141,0,0,0,.6-1.514,1.822,1.822,0,0,0-.586-1.434,5.217,5.217,0,0,0-1.869-.926,8.773,8.773,0,0,1-.862-.306,1.3,1.3,0,0,1-.461-.318.7.7,0,0,1-.169-.486.646.646,0,0,1,.318-.582,1.728,1.728,0,0,1,.919-.2,4.285,4.285,0,0,1,1.085.142,8.137,8.137,0,0,1,1.2.428l.139-1.387a7.56,7.56,0,0,0-1.118-.339,5.535,5.535,0,0,0-1.223-.137,3.048,3.048,0,0,0-2,.582,1.9,1.9,0,0,0-.7,1.534,1.809,1.809,0,0,0,.261,1,2.015,2.015,0,0,0,.7.667,6.385,6.385,0,0,0,1.123.493q.719.254,1.048.4a1.32,1.32,0,0,1,.5.351.779.779,0,0,1,.176.523.724.724,0,0,1-.318.64,1.533,1.533,0,0,1-.879.217,5.773,5.773,0,0,1-2.455-.677l-.159,1.439a5.315,5.315,0,0,0,1.118.371m6.7-.306a4.048,4.048,0,0,0,1.985.476,4.529,4.529,0,0,0,1.957-.433l-.147-1.292a5.623,5.623,0,0,1-.894.318,3.708,3.708,0,0,1-.916.1,2.141,2.141,0,0,1-1.72-.7,2.755,2.755,0,0,1-.6-1.852,2.71,2.71,0,0,1,.61-1.851,2.183,2.183,0,0,1,1.741-.7,3.5,3.5,0,0,1,.9.112,5.868,5.868,0,0,1,.874.312l.147-1.29a4.132,4.132,0,0,0-1.915-.435,4.033,4.033,0,0,0-1.985.483,3.45,3.45,0,0,0-1.365,1.353,4.035,4.035,0,0,0-.493,2.017,4.178,4.178,0,0,0,.476,2.027,3.337,3.337,0,0,0,1.339,1.35m5.073.328h1.355V32.556h3.387v3.207H91.43V28.355H90.075v2.931H86.688V28.355H85.334Zm7.727,0h4.4V34.556H94.415v-6.2H93.06Zm8.709-2.943-.921-2.647-.931,2.647Zm.423,1.185h-2.7l-.613,1.758H97.568l2.635-7.408h1.28l2.636,7.408h-1.312Zm2.774,1.758h1.355v-5.08l3.387,5.08h1.111V28.355h-1.355v4.784L106.3,28.355h-1.333Zm10.256-1.207a1.992,1.992,0,0,0,1.614-.66,2.776,2.776,0,0,0,.555-1.836,2.781,2.781,0,0,0-.555-1.837,1.993,1.993,0,0,0-1.614-.662H113.8v5Zm-2.774-6.2h2.774a3.94,3.94,0,0,1,1.888.444,3.183,3.183,0,0,1,1.3,1.282,4.436,4.436,0,0,1,0,3.957,3.194,3.194,0,0,1-1.3,1.282,3.959,3.959,0,0,1-1.888.444h-2.774Zm8.429,7.386a5.787,5.787,0,0,0,1.338.169,3.068,3.068,0,0,0,2.266-.645,2.148,2.148,0,0,0,.6-1.514,1.818,1.818,0,0,0-.588-1.434,5.193,5.193,0,0,0-1.868-.926,8.773,8.773,0,0,1-.862-.306,1.3,1.3,0,0,1-.461-.318.7.7,0,0,1-.169-.486.646.646,0,0,1,.318-.582,1.728,1.728,0,0,1,.919-.2,4.285,4.285,0,0,1,1.085.142,8.136,8.136,0,0,1,1.2.428l.139-1.387a7.622,7.622,0,0,0-1.118-.339,5.534,5.534,0,0,0-1.223-.137,3.048,3.048,0,0,0-2,.582,1.9,1.9,0,0,0-.7,1.534,1.823,1.823,0,0,0,.259,1,2.016,2.016,0,0,0,.7.667,6.385,6.385,0,0,0,1.123.493q.719.254,1.046.4a1.314,1.314,0,0,1,.5.351.779.779,0,0,1,.176.523.724.724,0,0,1-.318.64,1.533,1.533,0,0,1-.879.217,5.773,5.773,0,0,1-2.455-.677l-.157,1.439a5.262,5.262,0,0,0,1.116.371" transform="translate(31.655 3.046)" fill="#dc005a"/>
</svg>
